<svg width="32" height="32" viewBox="0 0 32 32" fill="none" xmlns="http://www.w3.org/2000/svg">
  <rect width="32" height="32" rx="6" fill="#121212"/>
  <path d="M8 12C8 9.79086 9.79086 8 12 8H20C22.2091 8 24 9.79086 24 12V20C24 22.2091 22.2091 24 20 24H12C9.79086 24 8 22.2091 8 20V12Z" fill="#00B4D8"/>
  <path d="M12 14C12 13.4477 12.4477 13 13 13H19C19.5523 13 20 13.4477 20 14V18C20 18.5523 19.5523 19 19 19H13C12.4477 19 12 18.5523 12 18V14Z" fill="#9EF01A"/>
  <circle cx="16" cy="16" r="2" fill="#121212"/>
  <path d="M14 10L18 10" stroke="#9EF01A" stroke-width="1.5" stroke-linecap="round"/>
  <path d="M14 22L18 22" stroke="#9EF01A" stroke-width="1.5" stroke-linecap="round"/>
</svg>
